<?xml version="1.0" encoding="utf-8" standalone="no"?>
<!DOCTYPE svg PUBLIC "-//W3C//DTD SVG 1.1//EN"
  "http://www.w3.org/Graphics/SVG/1.1/DTD/svg11.dtd">
<svg xmlns:xlink="http://www.w3.org/1999/xlink" width="648pt" height="216pt" viewBox="0 0 648 216" xmlns="http://www.w3.org/2000/svg" version="1.1">
 <metadata>
  <rdf:RDF xmlns:dc="http://purl.org/dc/elements/1.1/" xmlns:cc="http://creativecommons.org/ns#" xmlns:rdf="http://www.w3.org/1999/02/22-rdf-syntax-ns#">
   <cc:Work>
    <dc:type rdf:resource="http://purl.org/dc/dcmitype/StillImage"/>
    <dc:date>2024-08-01T16:48:57.217747</dc:date>
    <dc:format>image/svg+xml</dc:format>
    <dc:creator>
     <cc:Agent>
      <dc:title>Matplotlib v3.8.2, https://matplotlib.org/</dc:title>
     </cc:Agent>
    </dc:creator>
   </cc:Work>
  </rdf:RDF>
 </metadata>
 <defs>
  <style type="text/css">*{stroke-linejoin: round; stroke-linecap: butt}</style>
 </defs>
 <g id="figure_1">
  <g id="patch_1">
   <path d="M 0 216 
L 648 216 
L 648 0 
L 0 0 
z
" style="fill: #ffffff"/>
  </g>
  <g id="axes_1">
   <g id="patch_2">
    <path d="M 10.8 205.2 
L 318.6 205.2 
L 318.6 10.8 
L 10.8 10.8 
z
" style="fill: #ffffff"/>
   </g>
   <g id="line2d_1">
    <path d="M 24.790909 171.661841 
L 30.744487 163.407064 
L 36.698066 143.770701 
L 42.651644 144.083382 
L 48.605222 154.526925 
L 54.558801 171.036479 
L 60.512379 181.980313 
L 66.465957 190.23509 
L 72.419536 196.363636 
L 78.373114 190.985524 
L 84.326692 174.538506 
L 90.280271 167.847134 
L 96.233849 161.093225 
L 102.187427 152.838448 
L 108.141006 161.593515 
L 114.094584 113.002895 
L 120.048162 82.422698 
L 126.001741 85.987261 
L 131.955319 48.152866 
L 137.908897 69.91546 
L 143.862476 72.354372 
L 149.816054 87.050376 
L 155.769632 108.81297 
L 161.723211 109.188188 
L 167.676789 118.50608 
L 173.630368 129.137232 
L 179.583946 115.254198 
L 185.537524 109.81355 
L 191.491103 124.134337 
L 197.444681 125.134916 
L 203.398259 128.386798 
L 209.351838 118.068327 
L 215.305416 158.71685 
L 221.258994 181.104806 
L 227.212573 110.438911 
L 233.166151 74.35553 
L 239.119729 75.793862 
L 245.073308 96.68095 
L 251.026886 128.449334 
L 256.980464 150.211928 
L 262.934043 168.660104 
L 268.887621 165.345686 
L 274.841199 167.096699 
L 280.794778 158.654314 
L 286.748356 19.636364 
L 292.701934 119.81934 
L 298.655513 115.629415 
L 304.609091 122.633468 
" clip-path="url(#p39077d6c32)" style="fill: none; stroke: #000000; stroke-width: 6; stroke-linecap: square"/>
   </g>
   <g id="matplotlib.axis_1"/>
   <g id="matplotlib.axis_2"/>
   <g id="patch_3">
    <path d="M 10.8 205.2 
L 10.8 10.8 
" style="fill: none; stroke: #000000; stroke-width: 6; stroke-linejoin: miter; stroke-linecap: square"/>
   </g>
   <g id="patch_4">
    <path d="M 10.8 205.2 
L 318.6 205.2 
" style="fill: none; stroke: #000000; stroke-width: 6; stroke-linejoin: miter; stroke-linecap: square"/>
   </g>
  </g>
  <g id="axes_2">
   <g id="patch_5">
    <path d="M 329.4 205.2 
L 637.2 205.2 
L 637.2 10.8 
L 329.4 10.8 
z
" style="fill: #ffffff"/>
   </g>
   <g id="line2d_2">
    <path d="M 343.390909 26.645315 
L 349.344487 27.096725 
L 355.298066 27.972779 
L 361.251644 27.146138 
L 367.205222 27.633578 
L 373.158801 27.080254 
L 379.112379 26.056989 
L 385.065957 25.208215 
L 391.019536 24.340396 
L 396.973114 23.444267 
L 402.926692 22.259895 
L 408.880271 21.058537 
L 414.833849 21.258763 
L 420.787427 21.462078 
L 426.741006 35.292621 
L 432.694584 66.405425 
L 438.648162 104.823659 
L 444.601741 134.038688 
L 450.555319 155.157676 
L 456.508897 173.014879 
L 462.462476 184.453001 
L 468.416054 191.920053 
L 474.369632 195.816488 
L 480.323211 196.363636 
L 486.276789 195.554496 
L 492.230368 193.6665 
L 498.183946 191.108339 
L 504.137524 187.565516 
L 510.091103 181.931384 
L 516.044681 172.675678 
L 521.998259 159.460225 
L 527.951838 143.032401 
L 533.905416 122.264453 
L 539.858994 96.469228 
L 545.812573 68.133342 
L 551.766151 44.762452 
L 557.719729 37.621732 
L 563.673308 38.855003 
L 569.626886 37.540921 
L 575.580464 36.444051 
L 581.534043 33.408229 
L 587.487621 27.60218 
L 593.441199 25.074387 
L 599.394778 21.718923 
L 605.348356 19.636364 
L 611.301934 23.931854 
L 617.255513 23.474783 
L 623.209091 23.395368 
" clip-path="url(#p84046536b8)" style="fill: none; stroke: #000000; stroke-width: 6; stroke-linecap: square"/>
   </g>
   <g id="matplotlib.axis_3"/>
   <g id="matplotlib.axis_4"/>
   <g id="patch_6">
    <path d="M 329.4 205.2 
L 329.4 10.8 
" style="fill: none; stroke: #000000; stroke-width: 6; stroke-linejoin: miter; stroke-linecap: square"/>
   </g>
   <g id="patch_7">
    <path d="M 329.4 205.2 
L 637.2 205.2 
" style="fill: none; stroke: #000000; stroke-width: 6; stroke-linejoin: miter; stroke-linecap: square"/>
   </g>
  </g>
 </g>
 <defs>
  <clipPath id="p39077d6c32">
   <rect x="10.8" y="10.8" width="307.8" height="194.4"/>
  </clipPath>
  <clipPath id="p84046536b8">
   <rect x="329.4" y="10.8" width="307.8" height="194.4"/>
  </clipPath>
 </defs>
</svg>
